<?xml version="1.0" encoding="UTF-8"?>
<!DOCTYPE svg PUBLIC "-//W3C//DTD SVG 1.1//EN" "http://www.w3.org/Graphics/SVG/1.1/DTD/svg11.dtd">
<svg xmlns="http://www.w3.org/2000/svg" version="1.1" width="223px" height="205px" style="shape-rendering:geometricPrecision; text-rendering:geometricPrecision; image-rendering:optimizeQuality; fill-rule:evenodd; clip-rule:evenodd" xmlns:xlink="http://www.w3.org/1999/xlink">
<g><path style="opacity:0.004" fill="#fefffe" d="M 103.5,1.5 C 103.897,0.474981 104.563,0.308314 105.5,1C 104.906,1.46434 104.239,1.63101 103.5,1.5 Z"/></g>
<g><path style="opacity:0.004" fill="#fefffe" d="M 177.5,3.5 C 178.946,2.38705 180.613,2.22039 182.5,3C 180.866,3.49351 179.199,3.66018 177.5,3.5 Z"/></g>
<g><path style="opacity:0.004" fill="#fefffe" d="M 111.5,3.5 C 112.833,4.16667 112.833,4.16667 111.5,3.5 Z"/></g>
<g><path style="opacity:0.004" fill="#fefffe" d="M 175.5,4.5 C 174.833,3.16667 174.833,3.16667 175.5,4.5 Z"/></g>
<g><path style="opacity:0.004" fill="#fefffe" d="M 71.5,7.5 C 70.7611,7.63101 70.0944,7.46434 69.5,7C 70.4368,6.30831 71.1034,6.47498 71.5,7.5 Z"/></g>
<g><path style="opacity:1" fill="#f2ecec" d="M 82.5,1.5 C 82.5,1.83333 82.5,2.16667 82.5,2.5C 90.0137,2.08817 97.6804,2.58817 105.5,4C 116.41,9.12285 127.077,14.7895 137.5,21C 143.043,25.0416 147.709,29.8749 151.5,35.5C 151.539,36.5832 151.873,37.5832 152.5,38.5C 151.606,38.5173 150.606,38.8506 149.5,39.5C 140.556,28.0614 129.222,19.8947 115.5,15C 104.529,5.87439 92.5294,4.20772 79.5,10C 76.4734,12.8889 72.8068,14.5556 68.5,15C 64.8068,16.8466 61.1401,18.6799 57.5,20.5C 55.5,19.1667 53.5,19.1667 51.5,20.5C 57.7723,14.8617 65.1056,11.0284 73.5,9C 76.4068,7.39089 79.0734,5.55755 81.5,3.5C 79.9689,2.07546 80.3023,1.40879 82.5,1.5 Z"/></g>
<g><path style="opacity:0.004" fill="#fefffe" d="M 61.5,11.5 C 60.8333,10.1667 60.8333,10.1667 61.5,11.5 Z"/></g>
<g><path style="opacity:0.38" fill="#e2a4b8" d="M 85.5,-0.5 C 87.5,-0.5 89.5,-0.5 91.5,-0.5C 93.5,0.833333 95.5,0.833333 97.5,-0.5C 99.1667,-0.5 100.833,-0.5 102.5,-0.5C 101.391,0.28997 100.058,0.78997 98.5,1C 100.134,1.49351 101.801,1.66018 103.5,1.5C 105.298,3.10049 107.298,3.43382 109.5,2.5C 110.696,2.84569 110.696,3.34569 109.5,4C 110.094,4.46434 110.761,4.63101 111.5,4.5C 112.29,5.40128 113.29,6.06795 114.5,6.5C 117.188,6.87442 119.188,7.87442 120.5,9.5C 121.209,10.404 122.209,10.7373 123.5,10.5C 123.842,11.3382 124.508,11.6716 125.5,11.5C 125.842,12.3382 126.508,12.6716 127.5,12.5C 127.842,13.3382 128.508,13.6716 129.5,13.5C 130.52,14.9538 131.687,15.2871 133,14.5C 135.487,16.6768 137.987,19.0101 140.5,21.5C 143.808,24.6352 147.308,27.6352 151,30.5C 151.974,28.1224 152.641,28.4557 153,31.5C 153.49,30.2068 153.657,28.8734 153.5,27.5C 154.791,26.4583 154.791,25.2917 153.5,24C 154.126,23.2496 154.626,22.4162 155,21.5C 155.333,21.8333 155.667,22.1667 156,22.5C 157.113,21.2396 157.28,20.073 156.5,19C 157.416,18.7216 158.082,18.2216 158.5,17.5C 160.571,14.1961 163.071,11.1961 166,8.5C 167.558,9.3452 168.558,8.67854 169,6.5C 170.016,7.63411 170.683,7.30077 171,5.5C 172.016,6.63411 172.683,6.30077 173,4.5C 173.977,5.77359 174.811,5.77359 175.5,4.5C 179.182,4.3347 182.848,4.50137 186.5,5C 188.79,6.77717 190.457,8.94384 191.5,11.5C 191.167,11.5 190.833,11.5 190.5,11.5C 189.596,12.209 189.263,13.209 189.5,14.5C 187.36,6.88842 182.36,4.38842 174.5,7C 161.993,12.8537 154.826,22.6871 153,36.5C 152.617,35.944 152.117,35.6107 151.5,35.5C 147.709,29.8749 143.043,25.0416 137.5,21C 127.077,14.7895 116.41,9.12285 105.5,4C 97.6804,2.58817 90.0137,2.08817 82.5,2.5C 85.1667,2.16667 85.1667,1.83333 82.5,1.5C 83.5,0.833333 84.5,0.166667 85.5,-0.5 Z"/></g>
<g><path style="opacity:0.004" fill="#fefffe" d="M 123.5,9.5 C 124.833,10.1667 124.833,10.1667 123.5,9.5 Z"/></g>
<g><path style="opacity:0.004" fill="#fefffe" d="M 120.5,9.5 C 120.897,8.47498 121.563,8.30831 122.5,9C 121.906,9.46434 121.239,9.63101 120.5,9.5 Z"/></g>
<g><path style="opacity:0.004" fill="#fefffe" d="M 114.5,5.5 C 115.833,6.16667 115.833,6.16667 114.5,5.5 Z"/></g>
<g><path style="opacity:0.004" fill="#fefffe" d="M 125.5,10.5 C 126.833,11.1667 126.833,11.1667 125.5,10.5 Z"/></g>
<g><path style="opacity:0.004" fill="#fefffe" d="M 127.5,11.5 C 128.833,12.1667 128.833,12.1667 127.5,11.5 Z"/></g>
<g><path style="opacity:0.004" fill="#fefffe" d="M 129.5,12.5 C 130.833,13.1667 130.833,13.1667 129.5,12.5 Z"/></g>
<g><path style="opacity:0.988" fill="#f0eaeb" d="M 189.5,14.5 C 189.826,18.8839 189.492,23.2172 188.5,27.5C 187.817,27.1373 187.15,26.8039 186.5,26.5C 186.217,25.7109 185.717,25.0442 185,24.5C 184.667,20.5 184.333,16.5 184,12.5C 180.72,10.1092 177.22,9.94249 173.5,12C 162.852,18.1416 158.185,27.3083 159.5,39.5C 160.183,39.8627 160.85,40.1961 161.5,40.5C 163.623,45.3678 163.956,50.3678 162.5,55.5C 162.697,57.6822 163.364,59.6822 164.5,61.5C 164.255,63.6633 163.255,65.33 161.5,66.5C 160.337,62.9928 159.004,59.6595 157.5,56.5C 155.626,50.4203 152.959,44.7536 149.5,39.5C 150.606,38.8506 151.606,38.5173 152.5,38.5C 151.873,37.5832 151.539,36.5832 151.5,35.5C 152.117,35.6107 152.617,35.944 153,36.5C 154.826,22.6871 161.993,12.8537 174.5,7C 182.36,4.38842 187.36,6.88842 189.5,14.5 Z"/></g>
<g><path style="opacity:0.004" fill="#fefffe" d="M 211.5,14.5 C 209.143,14.6633 206.81,14.4966 204.5,14C 207.039,13.2042 209.372,13.3709 211.5,14.5 Z"/></g>
<g><path style="opacity:1" fill="#f2f0f1" d="M 117.5,21.5 C 117.586,22.4959 117.252,23.3292 116.5,24C 118.18,24.3468 119.18,25.3468 119.5,27C 118.385,28.3932 117.885,29.8932 118,31.5C 119.131,30.3961 119.965,30.7295 120.5,32.5C 122.078,33.2978 123.744,33.7978 125.5,34C 122.773,34.8184 120.106,34.6517 117.5,33.5C 116.965,31.739 115.965,30.4057 114.5,29.5C 112.692,23.535 109.025,19.3683 103.5,17C 105.041,18.3712 106.375,19.8712 107.5,21.5C 109.535,24.7581 111.202,28.2581 112.5,32C 111.464,33.7755 111.464,35.6089 112.5,37.5C 110.219,46.7033 108.886,46.37 108.5,36.5C 105.482,36.7038 102.482,37.0371 99.5,37.5C 100.5,45.5012 101.5,53.5012 102.5,61.5C 101.246,63.3569 101.246,65.3569 102.5,67.5C 106.204,67.9716 108.204,68.9716 108.5,70.5C 103.366,72.4653 98.0327,73.132 92.5,72.5C 89.9013,65.2039 87.4013,57.8706 85,50.5C 84.3412,47.1119 84.5078,43.7786 85.5,40.5C 88.4495,38.2725 90.1162,35.2725 90.5,31.5C 93.3619,23.2117 90.6952,17.2117 82.5,13.5C 95.8437,9.17677 107.51,11.8434 117.5,21.5 Z"/></g>
<g><path style="opacity:0.004" fill="#fefffe" d="M 158.5,17.5 C 157.833,16.1667 157.833,16.1667 158.5,17.5 Z"/></g>
<g><path style="opacity:0.522" fill="#e4a0b9" d="M 81.5,3.5 C 79.0734,5.55755 76.4068,7.39089 73.5,9C 65.1056,11.0284 57.7723,14.8617 51.5,20.5C 48.6071,22.114 45.6071,23.4473 42.5,24.5C 42.6495,25.552 42.4828,26.552 42,27.5C 34.5901,34.6548 28.9234,42.9881 25,52.5C 22.6778,59.7595 20.6778,67.0928 19,74.5C 17.6703,75.5822 16.1703,76.2488 14.5,76.5C 14.9867,75.5266 15.4867,74.5266 16,73.5C 16.6667,74.8333 17.3333,74.8333 18,73.5C 19.6889,70.2306 19.8555,66.8972 18.5,63.5C 18.6667,62.8333 18.8333,62.1667 19,61.5C 20.0432,65.2259 20.5432,64.8926 20.5,60.5C 21.404,59.791 21.7373,58.791 21.5,57.5C 22.7053,56.3281 22.7053,54.9948 21.5,53.5C 21.8457,52.3044 22.3457,52.3044 23,53.5C 24.8071,51.2939 25.3071,48.9606 24.5,46.5C 25.2472,46.2635 26.0805,45.9302 27,45.5C 28.6953,43.2068 29.362,40.8734 29,38.5C 29.9138,39.6537 30.7471,39.487 31.5,38C 31.1667,37.6667 30.8333,37.3333 30.5,37C 32.9589,36.276 33.9589,34.9427 33.5,33C 37.8493,28.3968 42.3493,23.8968 47,19.5C 47.3333,19.8333 47.6667,20.1667 48,20.5C 50.9433,18.0994 53.7766,15.5994 56.5,13C 57.4491,12.3828 58.2825,12.5494 59,13.5C 59.9947,12.9341 60.828,12.2674 61.5,11.5C 65.116,10.6857 68.4493,9.35233 71.5,7.5C 72.2389,7.63101 72.9056,7.46434 73.5,7C 72.6598,5.33353 73.1598,5.16686 75,6.5C 76.9935,5.08603 79.1602,4.08603 81.5,3.5 Z"/></g>
<g><path style="opacity:1" fill="#c23872" d="M 76.5,17.5 C 78.6282,16.3709 80.9615,16.2042 83.5,17C 85.751,17.7475 87.0844,19.2475 87.5,21.5C 86.333,20.1852 84.833,19.5186 83,19.5C 72.0713,22.0392 63.238,27.7059 56.5,36.5C 55.8333,36.1667 55.1667,35.8333 54.5,35.5C 55.709,32.7307 57.3757,30.2307 59.5,28C 64.7057,24.1272 70.3724,21.1272 76.5,19C 77.7383,18.31 77.7383,17.81 76.5,17.5 Z"/></g>
<g><path style="opacity:0.004" fill="#fefffe" d="M 140.5,20.5 C 141.833,21.1667 141.833,21.1667 140.5,20.5 Z"/></g>
<g><path style="opacity:0.004" fill="#fefffe" d="M 218.5,21.5 C 219.833,22.1667 219.833,22.1667 218.5,21.5 Z"/></g>
<g><path style="opacity:1" fill="#251b1e" d="M 149.5,39.5 C 152.959,44.7536 155.626,50.4203 157.5,56.5C 157.423,57.7498 156.756,58.5831 155.5,59C 156.554,61.3822 157.221,63.8822 157.5,66.5C 155.835,62.5119 154.168,58.5119 152.5,54.5C 150.007,48.0203 146.341,42.3536 141.5,37.5C 136.696,30.513 130.363,25.6797 122.5,23C 123.066,23.9947 123.733,24.828 124.5,25.5C 128.857,30.8524 133.19,36.1857 137.5,41.5C 137.784,43.4147 137.451,45.0813 136.5,46.5C 136.662,44.4727 136.495,42.4727 136,40.5C 130.256,35.4269 125.256,29.7602 121,23.5C 120.184,22.1772 119.017,21.5106 117.5,21.5C 107.51,11.8434 95.8437,9.17677 82.5,13.5C 90.6952,17.2117 93.3619,23.2117 90.5,31.5C 90.9745,27.5842 89.9745,24.2509 87.5,21.5C 87.0844,19.2475 85.751,17.7475 83.5,17C 80.9615,16.2042 78.6282,16.3709 76.5,17.5C 66.6598,20.0852 57.9931,24.7519 50.5,31.5C 49.828,30.7326 48.9947,30.0659 48,29.5C 47.1841,30.8228 46.0174,31.4894 44.5,31.5C 48.54,27.4579 52.8733,23.7912 57.5,20.5C 61.1401,18.6799 64.8068,16.8466 68.5,15C 72.8068,14.5556 76.4734,12.8889 79.5,10C 92.5294,4.20772 104.529,5.87439 115.5,15C 129.222,19.8947 140.556,28.0614 149.5,39.5 Z"/></g>
<g><path style="opacity:1" fill="#625b5a" d="M 114.5,29.5 C 112.638,26.4589 110.305,23.7922 107.5,21.5C 106.375,19.8712 105.041,18.3712 103.5,17C 109.025,19.3683 112.692,23.535 114.5,29.5 Z"/></g>
<g><path style="opacity:1" fill="#827d78" d="M 93.5,15.5 C 93.8966,14.475 94.5632,14.3083 95.5,15C 101.251,20.6629 104.084,27.4962 104,35.5C 102.411,30.0722 100.411,24.7388 98,19.5C 96.6288,17.9586 95.1288,16.6253 93.5,15.5 Z"/></g>
<g><path style="opacity:0.004" fill="#fefffe" d="M 153.5,27.5 C 152.475,27.1034 152.308,26.4368 153,25.5C 153.464,26.0944 153.631,26.7611 153.5,27.5 Z"/></g>
<g><path style="opacity:1" fill="#e3dbe8" d="M 76.5,17.5 C 77.7383,17.81 77.7383,18.31 76.5,19C 70.3724,21.1272 64.7057,24.1272 59.5,28C 57.3757,30.2307 55.709,32.7307 54.5,35.5C 52.1667,37.5 49.8333,39.5 47.5,41.5C 45.6096,41.2965 44.1096,41.9632 43,43.5C 41.8466,46.7546 41.0132,50.0879 40.5,53.5C 36.7394,60.4308 33.7394,67.7642 31.5,75.5C 30.675,76.3857 29.675,76.719 28.5,76.5C 30.2678,58.6333 37.6011,43.6333 50.5,31.5C 57.9931,24.7519 66.6598,20.0852 76.5,17.5 Z"/></g>
<g><path style="opacity:0.004" fill="#fefffe" d="M 221.5,29.5 C 221.833,29.5 222.167,29.5 222.5,29.5C 222.5,32.8333 222.5,36.1667 222.5,39.5C 221.521,36.3752 221.187,33.0419 221.5,29.5 Z"/></g>
<g><path style="opacity:1" fill="#251f20" d="M 186.5,26.5 C 186.5,29.1667 186.5,31.8333 186.5,34.5C 182.526,34.7692 178.86,35.9359 175.5,38C 180.5,40.8333 185.5,43.6667 190.5,46.5C 191.478,46.0233 192.311,45.3567 193,44.5C 193.055,40.6383 193.222,36.9717 193.5,33.5C 195.191,32.1363 196.858,30.803 198.5,29.5C 201.334,27.4985 203.667,24.9985 205.5,22C 207.167,21.3333 208.833,21.3333 210.5,22C 214.028,27.8008 215.028,33.9675 213.5,40.5C 213.057,37.1856 212.057,34.019 210.5,31C 211.59,28.721 211.256,26.5543 209.5,24.5C 208.702,24.9569 208.369,25.6236 208.5,26.5C 207.577,25.6971 206.577,25.5304 205.5,26C 202.688,27.9773 200.022,30.144 197.5,32.5C 197.342,35.7168 197.175,39.0501 197,42.5C 195.023,45.848 192.19,47.348 188.5,47C 184.357,45.0059 180.357,42.8392 176.5,40.5C 174.659,39.5977 173.326,38.2644 172.5,36.5C 170.72,35.0101 170.054,33.0101 170.5,30.5C 174.832,29.7336 179.166,28.9003 183.5,28C 183.957,27.586 184.291,27.086 184.5,26.5C 183.5,26.1667 182.5,25.8333 181.5,25.5C 179.182,25.9971 176.848,26.3305 174.5,26.5C 175.663,22.0178 177.996,18.1845 181.5,15C 170.453,17.2231 164.453,24.0565 163.5,35.5C 163.062,35.4346 162.728,35.6012 162.5,36C 165.352,38.1526 165.852,40.6526 164,43.5C 163.333,42.1667 162.667,40.8333 162,39.5C 161.601,39.7284 161.435,40.0618 161.5,40.5C 160.85,40.1961 160.183,39.8627 159.5,39.5C 158.185,27.3083 162.852,18.1416 173.5,12C 177.22,9.94249 180.72,10.1092 184,12.5C 184.333,16.5 184.667,20.5 185,24.5C 185.717,25.0442 186.217,25.7109 186.5,26.5 Z"/></g>
<g><path style="opacity:0.571" fill="#d787a9" d="M 190.5,11.5 C 190.5,13.5 190.5,15.5 190.5,17.5C 191.166,21.4701 191.832,25.4701 192.5,29.5C 192.291,30.086 191.957,30.586 191.5,31C 192.756,31.4169 193.423,32.2502 193.5,33.5C 193.222,36.9717 193.055,40.6383 193,44.5C 192.311,45.3567 191.478,46.0233 190.5,46.5C 185.5,43.6667 180.5,40.8333 175.5,38C 178.86,35.9359 182.526,34.7692 186.5,34.5C 186.5,31.8333 186.5,29.1667 186.5,26.5C 187.15,26.8039 187.817,27.1373 188.5,27.5C 189.492,23.2172 189.826,18.8839 189.5,14.5C 189.263,13.209 189.596,12.209 190.5,11.5 Z"/></g>
<g><path style="opacity:1" fill="#deaec2" d="M 141.5,37.5 C 141.565,37.9382 141.399,38.2716 141,38.5C 136.438,32.823 130.938,28.4897 124.5,25.5C 123.733,24.828 123.066,23.9947 122.5,23C 130.363,25.6797 136.696,30.513 141.5,37.5 Z"/></g>
<g><path style="opacity:0.933" fill="#905f2f" d="M 172.5,36.5 C 171.437,30.7323 172.103,30.399 174.5,35.5C 174.043,36.2975 173.376,36.6309 172.5,36.5 Z"/></g>
<g><path style="opacity:0.976" fill="#e0e0e3" d="M 172.5,36.5 C 173.326,38.2644 174.659,39.5977 176.5,40.5C 175.687,41.6527 174.687,41.6527 173.5,40.5C 171.137,44.4673 169.97,48.8007 170,53.5C 169.162,54.999 168.329,55.3324 167.5,54.5C 169.02,48.6731 168.52,43.0064 166,37.5C 165.292,36.6195 164.458,35.9528 163.5,35.5C 164.453,24.0565 170.453,17.2231 181.5,15C 177.996,18.1845 175.663,22.0178 174.5,26.5C 176.848,26.3305 179.182,25.9971 181.5,25.5C 182.5,25.8333 183.5,26.1667 184.5,26.5C 184.291,27.086 183.957,27.586 183.5,28C 179.166,28.9003 174.832,29.7336 170.5,30.5C 170.054,33.0101 170.72,35.0101 172.5,36.5 Z"/></g>
<g><path style="opacity:1" fill="#d32478" d="M 102.5,61.5 C 101.5,53.5012 100.5,45.5012 99.5,37.5C 102.482,37.0371 105.482,36.7038 108.5,36.5C 108.886,46.37 110.219,46.7033 112.5,37.5C 115.882,35.3681 119.549,35.0348 123.5,36.5C 120.528,40.7569 119.028,45.4236 119,50.5C 122.695,55.3617 126.195,60.3617 129.5,65.5C 126.167,66.8333 122.833,66.8333 119.5,65.5C 116.858,61.6906 114.025,58.0239 111,54.5C 111.271,58.8085 111.771,63.1419 112.5,67.5C 109.5,67.5 106.5,67.5 103.5,67.5C 103.795,65.2646 103.461,63.2646 102.5,61.5 Z"/></g>
<g><path style="opacity:1" fill="#eb7ca6" d="M 87.5,21.5 C 89.9745,24.2509 90.9745,27.5842 90.5,31.5C 90.1162,35.2725 88.4495,38.2725 85.5,40.5C 82.925,42.8453 81.925,45.8453 82.5,49.5C 81.6862,47.369 81.1862,45.0356 81,42.5C 74.2835,42.815 67.4501,42.9817 60.5,43C 59.8971,41.1746 59.2304,39.3413 58.5,37.5C 57.5712,38.5498 56.9046,38.5498 56.5,37.5C 56.5,37.1667 56.5,36.8333 56.5,36.5C 63.238,27.7059 72.0713,22.0392 83,19.5C 84.833,19.5186 86.333,20.1852 87.5,21.5 Z"/></g>
<g><path style="opacity:1" fill="#f8f1f2" d="M 76.5,26.5 C 77.5,26.5 78.5,26.5 79.5,26.5C 79.6943,33.6452 76.3609,38.3118 69.5,40.5C 66.7536,39.9037 65.9202,38.2371 67,35.5C 69.4057,31.5915 72.5724,28.5915 76.5,26.5 Z"/></g>
<g><path style="opacity:1" fill="#c49dc9" d="M 47.5,41.5 C 45.9402,43.9535 44.9402,46.6202 44.5,49.5C 43.1667,50.8333 41.8333,52.1667 40.5,53.5C 41.0132,50.0879 41.8466,46.7546 43,43.5C 44.1096,41.9632 45.6096,41.2965 47.5,41.5 Z"/></g>
<g><path style="opacity:0.004" fill="#fefffe" d="M 219.5,45.5 C 220.525,45.8966 220.692,46.5632 220,47.5C 219.536,46.9056 219.369,46.2389 219.5,45.5 Z"/></g>
<g><path style="opacity:1" fill="#ea6495" d="M 56.5,37.5 C 56.9046,38.5498 57.5712,38.5498 58.5,37.5C 59.2304,39.3413 59.8971,41.1746 60.5,43C 67.4501,42.9817 74.2835,42.815 81,42.5C 81.1862,45.0356 81.6862,47.369 82.5,49.5C 82.5,50.5 82.5,51.5 82.5,52.5C 75.9613,53.0794 69.628,53.7461 63.5,54.5C 58.4072,53.6692 53.7405,52.0026 49.5,49.5C 50.8278,44.8349 53.1611,40.8349 56.5,37.5 Z"/></g>
<g><path style="opacity:1" fill="#f3eff1" d="M 107.5,21.5 C 110.305,23.7922 112.638,26.4589 114.5,29.5C 115.965,30.4057 116.965,31.739 117.5,33.5C 120.106,34.6517 122.773,34.8184 125.5,34C 123.744,33.7978 122.078,33.2978 120.5,32.5C 119.965,30.7295 119.131,30.3961 118,31.5C 117.885,29.8932 118.385,28.3932 119.5,27C 119.18,25.3468 118.18,24.3468 116.5,24C 117.252,23.3292 117.586,22.4959 117.5,21.5C 119.017,21.5106 120.184,22.1772 121,23.5C 125.256,29.7602 130.256,35.4269 136,40.5C 136.495,42.4727 136.662,44.4727 136.5,46.5C 136.831,55.1922 136.498,63.8589 135.5,72.5C 126.603,70.7856 117.603,70.1189 108.5,70.5C 108.204,68.9716 106.204,67.9716 102.5,67.5C 101.246,65.3569 101.246,63.3569 102.5,61.5C 103.461,63.2646 103.795,65.2646 103.5,67.5C 106.5,67.5 109.5,67.5 112.5,67.5C 111.771,63.1419 111.271,58.8085 111,54.5C 114.025,58.0239 116.858,61.6906 119.5,65.5C 122.833,66.8333 126.167,66.8333 129.5,65.5C 126.195,60.3617 122.695,55.3617 119,50.5C 119.028,45.4236 120.528,40.7569 123.5,36.5C 119.549,35.0348 115.882,35.3681 112.5,37.5C 111.464,35.6089 111.464,33.7755 112.5,32C 111.202,28.2581 109.535,24.7581 107.5,21.5 Z"/></g>
<g><path style="opacity:0.004" fill="#fefffe" d="M 218.5,48.5 C 219.833,49.1667 219.833,49.8333 218.5,50.5C 218.5,49.8333 218.5,49.1667 218.5,48.5 Z"/></g>
<g><path style="opacity:1" fill="#efe5e7" d="M 57.5,20.5 C 52.8733,23.7912 48.54,27.4579 44.5,31.5C 38.3596,37.4948 33.5263,44.4948 30,52.5C 27.3658,60.703 25.1992,69.0363 23.5,77.5C 9.47516,85.2233 4.47516,96.8899 8.5,112.5C 9.89999,118.226 12.9,122.893 17.5,126.5C 16.0642,130.027 13.8975,130.36 11,127.5C -1.02205,110.284 -0.188718,93.7843 13.5,78C 13.2716,77.6012 12.9382,77.4346 12.5,77.5C 12.4088,75.3023 13.0755,74.9689 14.5,76.5C 16.1703,76.2488 17.6703,75.5822 19,74.5C 20.6778,67.0928 22.6778,59.7595 25,52.5C 28.9234,42.9881 34.5901,34.6548 42,27.5C 42.4828,26.552 42.6495,25.552 42.5,24.5C 45.6071,23.4473 48.6071,22.114 51.5,20.5C 53.5,19.1667 55.5,19.1667 57.5,20.5 Z"/></g>
<g><path style="opacity:0.969" fill="#817f7d" d="M 208.5,29.5 C 210.202,36.3419 209.369,43.0085 206,49.5C 204.786,51.0488 203.286,52.2155 201.5,53C 193.138,53.8761 187.138,58.0427 183.5,65.5C 183.41,62.3011 184.743,59.4678 187.5,57C 191.697,53.9016 196.363,51.9016 201.5,51C 206.837,46.475 208.837,40.975 207.5,34.5C 208.301,32.9582 208.634,31.2915 208.5,29.5 Z"/></g>
<g><path style="opacity:0.004" fill="#fefffe" d="M 217.5,50.5 C 217.833,50.5 218.167,50.5 218.5,50.5C 218.315,51.1701 217.981,51.1701 217.5,50.5 Z"/></g>
<g><path style="opacity:1" fill="#501427" d="M 54.5,35.5 C 55.1667,35.8333 55.8333,36.1667 56.5,36.5C 56.5,36.8333 56.5,37.1667 56.5,37.5C 53.1611,40.8349 50.8278,44.8349 49.5,49.5C 47.9925,51.1815 46.9925,53.1815 46.5,55.5C 45.675,57.8102 44.3417,59.8102 42.5,61.5C 43.1667,57.5 43.8333,53.5 44.5,49.5C 44.9402,46.6202 45.9402,43.9535 47.5,41.5C 49.8333,39.5 52.1667,37.5 54.5,35.5 Z"/></g>
<g><path style="opacity:0.004" fill="#fefffe" d="M 216.5,52.5 C 217.833,53.1667 217.833,53.1667 216.5,52.5 Z"/></g>
<g><path style="opacity:0.004" fill="#fefffe" d="M 21.5,57.5 C 20.475,57.1034 20.3083,56.4368 21,55.5C 21.4643,56.0944 21.631,56.7611 21.5,57.5 Z"/></g>
<g><path style="opacity:1" fill="#acaeb2" d="M 208.5,26.5 C 208.5,27.5 208.5,28.5 208.5,29.5C 208.634,31.2915 208.301,32.9582 207.5,34.5C 207.588,42.171 204.254,47.671 197.5,51C 189.738,52.2551 184.071,56.4218 180.5,63.5C 175.508,61.3391 170.841,58.6724 166.5,55.5C 166.624,54.8933 166.957,54.56 167.5,54.5C 168.329,55.3324 169.162,54.999 170,53.5C 169.97,48.8007 171.137,44.4673 173.5,40.5C 174.687,41.6527 175.687,41.6527 176.5,40.5C 180.357,42.8392 184.357,45.0059 188.5,47C 192.19,47.348 195.023,45.848 197,42.5C 197.175,39.0501 197.342,35.7168 197.5,32.5C 200.022,30.144 202.688,27.9773 205.5,26C 206.577,25.5304 207.577,25.6971 208.5,26.5 Z"/></g>
<g><path style="opacity:0.004" fill="#fefffe" d="M 20.5,60.5 C 19.475,60.1034 19.3083,59.4368 20,58.5C 20.4643,59.0944 20.631,59.7611 20.5,60.5 Z"/></g>
<g><path style="opacity:1" fill="#f2e9ea" d="M 176.5,118.5 C 185.468,109.761 188.968,99.0947 187,86.5C 185.631,82.2674 184.131,78.1008 182.5,74C 182.715,72.0922 183.715,70.9256 185.5,70.5C 187.109,67.4704 189.109,64.6371 191.5,62C 203.965,60.0349 211.298,52.8682 213.5,40.5C 215.028,33.9675 214.028,27.8008 210.5,22C 208.833,21.3333 207.167,21.3333 205.5,22C 203.667,24.9985 201.334,27.4985 198.5,29.5C 197.893,19.9368 202.226,15.7702 211.5,17C 214.869,19.3649 217.036,22.5315 218,26.5C 220.32,38.8096 217.487,49.6429 209.5,59C 204.376,62.8775 198.709,65.7108 192.5,67.5C 191.499,70.1732 189.999,72.5065 188,74.5C 188.555,78.183 189.555,81.8496 191,85.5C 193.866,99.8918 190.033,112.058 179.5,122C 177.522,121.967 176.522,120.8 176.5,118.5 Z"/></g>
<g><path style="opacity:0.004" fill="#fefffe" d="M 207.5,62.5 C 207.833,62.5 208.167,62.5 208.5,62.5C 208.315,63.1701 207.981,63.1701 207.5,62.5 Z"/></g>
<g><path style="opacity:1" fill="#e13374" d="M 49.5,49.5 C 53.7405,52.0026 58.4072,53.6692 63.5,54.5C 69.628,53.7461 75.9613,53.0794 82.5,52.5C 82.5,51.5 82.5,50.5 82.5,49.5C 85.9221,57.4383 88.5888,65.7716 90.5,74.5C 77.3226,77.9231 64.9892,83.2564 53.5,90.5C 52.5819,87.5943 51.2485,84.9276 49.5,82.5C 47.6569,76.8963 45.9902,71.2296 44.5,65.5C 45.5514,62.243 46.2181,58.9097 46.5,55.5C 46.9925,53.1815 47.9925,51.1815 49.5,49.5 Z"/></g>
<g><path style="opacity:1" fill="#802644" d="M 152.5,54.5 C 154.168,58.5119 155.835,62.5119 157.5,66.5C 158.492,71.4516 159.158,76.4516 159.5,81.5C 157.414,83.0234 155.748,82.69 154.5,80.5C 155.199,73.643 154.199,66.8097 151.5,60C 152.233,58.2341 152.567,56.4008 152.5,54.5 Z"/></g>
<g><path style="opacity:0.004" fill="#fefffe" d="M 204.5,64.5 C 204.833,64.5 205.167,64.5 205.5,64.5C 205.315,65.1701 204.981,65.1701 204.5,64.5 Z"/></g>
<g><path style="opacity:1" fill="#201a1c" d="M 213.5,40.5 C 211.298,52.8682 203.965,60.0349 191.5,62C 189.109,64.6371 187.109,67.4704 185.5,70.5C 184.687,69.3473 183.687,69.3473 182.5,70.5C 181.667,71.5 180.833,72.5 180,73.5C 179.658,71.3808 178.825,71.0474 177.5,72.5C 177.557,71.391 177.89,70.391 178.5,69.5C 180.273,68.6857 180.773,67.3524 180,65.5C 177.197,63.1814 174.03,61.5147 170.5,60.5C 169.476,61.8518 168.476,63.1851 167.5,64.5C 165.562,68.0432 163.895,71.7099 162.5,75.5C 160.926,77.1016 160.259,79.1016 160.5,81.5C 160.167,81.5 159.833,81.5 159.5,81.5C 159.158,76.4516 158.492,71.4516 157.5,66.5C 157.221,63.8822 156.554,61.3822 155.5,59C 156.756,58.5831 157.423,57.7498 157.5,56.5C 159.004,59.6595 160.337,62.9928 161.5,66.5C 163.255,65.33 164.255,63.6633 164.5,61.5C 163.364,59.6822 162.697,57.6822 162.5,55.5C 163.956,50.3678 163.623,45.3678 161.5,40.5C 161.435,40.0618 161.601,39.7284 162,39.5C 162.667,40.8333 163.333,42.1667 164,43.5C 165.852,40.6526 165.352,38.1526 162.5,36C 162.728,35.6012 163.062,35.4346 163.5,35.5C 164.458,35.9528 165.292,36.6195 166,37.5C 168.52,43.0064 169.02,48.6731 167.5,54.5C 166.957,54.56 166.624,54.8933 166.5,55.5C 170.841,58.6724 175.508,61.3391 180.5,63.5C 184.071,56.4218 189.738,52.2551 197.5,51C 204.254,47.671 207.588,42.171 207.5,34.5C 208.837,40.975 206.837,46.475 201.5,51C 196.363,51.9016 191.697,53.9016 187.5,57C 184.743,59.4678 183.41,62.3011 183.5,65.5C 187.138,58.0427 193.138,53.8761 201.5,53C 203.286,52.2155 204.786,51.0488 206,49.5C 209.369,43.0085 210.202,36.3419 208.5,29.5C 208.5,28.5 208.5,27.5 208.5,26.5C 208.369,25.6236 208.702,24.9569 209.5,24.5C 211.256,26.5543 211.59,28.721 210.5,31C 212.057,34.019 213.057,37.1856 213.5,40.5 Z"/></g>
<g><path style="opacity:1" fill="#895319" d="M 178.5,69.5 C 178.5,69.1667 178.5,68.8333 178.5,68.5C 177.432,67.5655 176.099,67.2322 174.5,67.5C 173.833,67.1667 173.167,66.8333 172.5,66.5C 171.71,65.5987 170.71,64.9321 169.5,64.5C 168.833,64.5 168.167,64.5 167.5,64.5C 168.476,63.1851 169.476,61.8518 170.5,60.5C 174.03,61.5147 177.197,63.1814 180,65.5C 180.773,67.3524 180.273,68.6857 178.5,69.5 Z"/></g>
<g><path style="opacity:1" fill="#db2e6f" d="M 124.5,25.5 C 130.938,28.4897 136.438,32.823 141,38.5C 141.399,38.2716 141.565,37.9382 141.5,37.5C 146.341,42.3536 150.007,48.0203 152.5,54.5C 152.567,56.4008 152.233,58.2341 151.5,60C 154.199,66.8097 155.199,73.643 154.5,80.5C 149.28,78.3073 144.114,75.9739 139,73.5C 138.83,62.6588 138.33,51.9921 137.5,41.5C 133.19,36.1857 128.857,30.8524 124.5,25.5 Z"/></g>
<g><path style="opacity:0.004" fill="#fefffe" d="M 196.5,67.5 C 197.167,67.5 197.833,67.5 198.5,67.5C 195.914,68.4153 193.914,70.082 192.5,72.5C 192.5,72.1667 192.5,71.8333 192.5,71.5C 192.5,71.1667 192.5,70.8333 192.5,70.5C 193.167,70.5 193.5,70.1667 193.5,69.5C 193.973,68.0937 194.973,67.427 196.5,67.5 Z"/></g>
<g><path style="opacity:1" fill="#a82c58" d="M 46.5,55.5 C 46.2181,58.9097 45.5514,62.243 44.5,65.5C 45.9902,71.2296 47.6569,76.8963 49.5,82.5C 47.0616,80.7328 44.395,79.3994 41.5,78.5C 40.3911,77.1213 39.7245,75.4547 39.5,73.5C 40.7991,69.6372 41.7991,65.6372 42.5,61.5C 44.3417,59.8102 45.675,57.8102 46.5,55.5 Z"/></g>
<g><path style="opacity:1" fill="#f2c619" d="M 172.5,66.5 C 173.167,66.8333 173.833,67.1667 174.5,67.5C 171.693,73.1136 168.86,78.7802 166,84.5C 165.329,85.2524 164.496,85.5858 163.5,85.5C 163.167,85.5 162.833,85.5 162.5,85.5C 164.599,79.2967 167.266,73.2967 170.5,67.5C 170.957,66.7025 171.624,66.3691 172.5,66.5 Z"/></g>
<g><path style="opacity:1" fill="#b77b18" d="M 174.5,67.5 C 176.099,67.2322 177.432,67.5655 178.5,68.5C 177.325,68.281 176.325,68.6143 175.5,69.5C 171.962,75.2432 168.962,81.2432 166.5,87.5C 165.29,87.0679 164.29,86.4013 163.5,85.5C 164.496,85.5858 165.329,85.2524 166,84.5C 168.86,78.7802 171.693,73.1136 174.5,67.5 Z"/></g>
<g><path style="opacity:1" fill="#efc921" d="M 167.5,64.5 C 168.167,64.5 168.833,64.5 169.5,64.5C 168.404,69.3579 166.238,73.6912 163,77.5C 162.536,76.9056 162.369,76.2389 162.5,75.5C 163.895,71.7099 165.562,68.0432 167.5,64.5 Z"/></g>
<g><path style="opacity:0.004" fill="#fefffe" d="M 190.5,74.5 C 191.833,75.1667 191.833,75.1667 190.5,74.5 Z"/></g>
<g><path style="opacity:1" fill="#c28025" d="M 169.5,64.5 C 170.71,64.9321 171.71,65.5987 172.5,66.5C 171.624,66.3691 170.957,66.7025 170.5,67.5C 167.266,73.2967 164.599,79.2967 162.5,85.5C 160.896,84.713 160.229,83.3797 160.5,81.5C 160.259,79.1016 160.926,77.1016 162.5,75.5C 162.369,76.2389 162.536,76.9056 163,77.5C 166.238,73.6912 168.404,69.3579 169.5,64.5 Z"/></g>
<g><path style="opacity:1" fill="#f0be27" d="M 178.5,68.5 C 178.5,68.8333 178.5,69.1667 178.5,69.5C 177.89,70.391 177.557,71.391 177.5,72.5C 175.975,74.2163 174.975,76.2163 174.5,78.5C 172.608,81.2765 170.941,84.2765 169.5,87.5C 168.386,88.7759 167.386,88.7759 166.5,87.5C 168.962,81.2432 171.962,75.2432 175.5,69.5C 176.325,68.6143 177.325,68.281 178.5,68.5 Z"/></g>
<g><path style="opacity:1" fill="#23161b" d="M 50.5,31.5 C 37.6011,43.6333 30.2678,58.6333 28.5,76.5C 29.675,76.719 30.675,76.3857 31.5,75.5C 33.7394,67.7642 36.7394,60.4308 40.5,53.5C 41.8333,52.1667 43.1667,50.8333 44.5,49.5C 43.8333,53.5 43.1667,57.5 42.5,61.5C 41.7991,65.6372 40.7991,69.6372 39.5,73.5C 39.7245,75.4547 40.3911,77.1213 41.5,78.5C 37.5,79.1667 33.5,79.8333 29.5,80.5C 20.8333,83.1667 15.1667,88.8333 12.5,97.5C 11.5166,101.298 11.1832,105.298 11.5,109.5C 11.631,110.239 11.4643,110.906 11,111.5C 10.6667,110.5 10.3333,109.5 10,108.5C 9.78997,110.058 9.28997,111.391 8.5,112.5C 4.47516,96.8899 9.47516,85.2233 23.5,77.5C 25.1992,69.0363 27.3658,60.703 30,52.5C 33.5263,44.4948 38.3596,37.4948 44.5,31.5C 46.0174,31.4894 47.1841,30.8228 48,29.5C 48.9947,30.0659 49.828,30.7326 50.5,31.5 Z"/></g>
<g><path style="opacity:0.004" fill="#fefffe" d="M 192.5,80.5 C 193.833,81.1667 193.833,81.8333 192.5,82.5C 192.5,81.8333 192.5,81.1667 192.5,80.5 Z"/></g>
<g><path style="opacity:1" fill="#e5548b" d="M 78.5,80.5 C 79.5676,81.4345 80.901,81.7678 82.5,81.5C 82.281,82.675 82.6143,83.675 83.5,84.5C 86.2769,86.1787 88.9436,87.8454 91.5,89.5C 89.9336,89.9763 89.6002,90.643 90.5,91.5C 92.4086,90.6518 94.4086,90.3184 96.5,90.5C 90.3524,93.7389 84.0191,96.7389 77.5,99.5C 72.9164,98.7227 68.2497,98.2227 63.5,98C 70.6065,97.98 77.2732,96.3133 83.5,93C 81.1364,90.6842 78.3031,89.1842 75,88.5C 74.4054,87.1011 74.5721,85.7678 75.5,84.5C 75.1667,84.1667 74.8333,83.8333 74.5,83.5C 71.3199,85.0946 67.9865,86.0946 64.5,86.5C 68.8556,83.9316 73.5223,81.9316 78.5,80.5 Z"/></g>
<g><path style="opacity:0.275" fill="#e5a8c3" d="M 182.5,100.5 C 181.883,100.611 181.383,100.944 181,101.5C 180.148,100.429 179.315,99.4293 178.5,98.5C 177.167,96.5 175.5,94.8333 173.5,93.5C 172.286,92.3744 171.286,91.0411 170.5,89.5C 172.1,86.6319 173.433,83.6319 174.5,80.5C 175.315,79.5707 176.148,78.5707 177,77.5C 183.051,84.1545 184.885,91.8212 182.5,100.5 Z"/></g>
<g><path style="opacity:1" fill="#382126" d="M 85.5,40.5 C 84.5078,43.7786 84.3412,47.1119 85,50.5C 87.4013,57.8706 89.9013,65.2039 92.5,72.5C 98.0327,73.132 103.366,72.4653 108.5,70.5C 117.603,70.1189 126.603,70.7856 135.5,72.5C 136.498,63.8589 136.831,55.1922 136.5,46.5C 137.451,45.0813 137.784,43.4147 137.5,41.5C 138.33,51.9921 138.83,62.6588 139,73.5C 144.114,75.9739 149.28,78.3073 154.5,80.5C 155.748,82.69 157.414,83.0234 159.5,81.5C 159.833,81.5 160.167,81.5 160.5,81.5C 160.229,83.3797 160.896,84.713 162.5,85.5C 162.833,85.5 163.167,85.5 163.5,85.5C 164.29,86.4013 165.29,87.0679 166.5,87.5C 167.386,88.7759 168.386,88.7759 169.5,87.5C 170.941,84.2765 172.608,81.2765 174.5,78.5C 174.5,79.1667 174.5,79.8333 174.5,80.5C 173.433,83.6319 172.1,86.6319 170.5,89.5C 171.286,91.0411 172.286,92.3744 173.5,93.5C 172.29,93.9321 171.29,94.5987 170.5,95.5C 170.167,95.5 169.833,95.5 169.5,95.5C 168.426,94.1154 167.093,92.9487 165.5,92C 159.728,89.3685 154.061,86.8685 148.5,84.5C 150.288,84.7852 151.955,84.4519 153.5,83.5C 144.547,77.0256 134.547,73.3589 123.5,72.5C 116.443,72.24 109.443,72.5733 102.5,73.5C 94.0398,74.6111 86.0398,76.9444 78.5,80.5C 73.5223,81.9316 68.8556,83.9316 64.5,86.5C 61.4111,87.7389 58.4111,89.2389 55.5,91C 53.9632,92.1096 53.2965,93.6096 53.5,95.5C 53.1667,95.5 52.8333,95.5 52.5,95.5C 52.1805,87.7259 48.1805,82.8926 40.5,81C 36.8484,80.5014 33.1817,80.3347 29.5,80.5C 33.5,79.8333 37.5,79.1667 41.5,78.5C 44.395,79.3994 47.0616,80.7328 49.5,82.5C 51.2485,84.9276 52.5819,87.5943 53.5,90.5C 64.9892,83.2564 77.3226,77.9231 90.5,74.5C 88.5888,65.7716 85.9221,57.4383 82.5,49.5C 81.925,45.8453 82.925,42.8453 85.5,40.5 Z"/></g>
<g><path style="opacity:1" fill="#eb6999" d="M 102.5,73.5 C 102.511,75.0174 103.177,76.1841 104.5,77C 103.88,79.9247 105.214,81.7581 108.5,82.5C 103.352,84.1055 98.3518,86.1055 93.5,88.5C 93.1583,89.3382 92.4916,89.6716 91.5,89.5C 88.9436,87.8454 86.2769,86.1787 83.5,84.5C 82.6143,83.675 82.281,82.675 82.5,81.5C 80.901,81.7678 79.5676,81.4345 78.5,80.5C 86.0398,76.9444 94.0398,74.6111 102.5,73.5 Z"/></g>
<g><path style="opacity:1" fill="#91435f" d="M 129.5,80.5 C 130.492,80.3284 131.158,80.6618 131.5,81.5C 130.508,81.3284 129.842,81.6618 129.5,82.5C 123.801,82.3119 118.134,82.6452 112.5,83.5C 106.208,85.323 99.8749,86.9896 93.5,88.5C 98.3518,86.1055 103.352,84.1055 108.5,82.5C 115.468,81.5938 122.468,80.9271 129.5,80.5 Z"/></g>
<g><path style="opacity:1" fill="#614149" d="M 129.5,82.5 C 129.842,81.6618 130.508,81.3284 131.5,81.5C 137.503,81.3325 143.17,82.3325 148.5,84.5C 142.137,84.0796 135.804,83.4129 129.5,82.5 Z"/></g>
<g><path style="opacity:1" fill="#f4f2f2" d="M 123.5,72.5 C 134.547,73.3589 144.547,77.0256 153.5,83.5C 151.955,84.4519 150.288,84.7852 148.5,84.5C 143.17,82.3325 137.503,81.3325 131.5,81.5C 131.158,80.6618 130.492,80.3284 129.5,80.5C 127.885,77.5505 125.885,74.8838 123.5,72.5 Z"/></g>
<g><path style="opacity:1" fill="#f294b8" d="M 123.5,72.5 C 125.885,74.8838 127.885,77.5505 129.5,80.5C 122.468,80.9271 115.468,81.5938 108.5,82.5C 105.214,81.7581 103.88,79.9247 104.5,77C 103.177,76.1841 102.511,75.0174 102.5,73.5C 109.443,72.5733 116.443,72.24 123.5,72.5 Z"/></g>
<g><path style="opacity:0.004" fill="#fefffe" d="M 194.5,87.5 C 195.648,91.9811 195.815,96.6478 195,101.5C 194.79,99.9419 194.29,98.6085 193.5,97.5C 193.5,96.8333 193.5,96.1667 193.5,95.5C 194.473,93.0521 194.806,90.3854 194.5,87.5 Z"/></g>
<g><path style="opacity:1" fill="#d92d6d" d="M 77.5,99.5 C 73.03,100.486 68.3633,100.819 63.5,100.5C 59.5799,99.8734 56.2466,98.2067 53.5,95.5C 53.2965,93.6096 53.9632,92.1096 55.5,91C 58.4111,89.2389 61.4111,87.7389 64.5,86.5C 67.9865,86.0946 71.3199,85.0946 74.5,83.5C 74.8333,83.8333 75.1667,84.1667 75.5,84.5C 74.5721,85.7678 74.4054,87.1011 75,88.5C 78.3031,89.1842 81.1364,90.6842 83.5,93C 77.2732,96.3133 70.6065,97.98 63.5,98C 68.2497,98.2227 72.9164,98.7227 77.5,99.5 Z"/></g>
<g><path style="opacity:0.004" fill="#fefffe" d="M 2.5,91.5 C 1.83333,90.1667 1.83333,90.1667 2.5,91.5 Z"/></g>
<g><path style="opacity:1" fill="#9e3055" d="M 169.5,95.5 C 169.833,95.5 170.167,95.5 170.5,95.5C 175.744,98.7183 175.744,101.718 170.5,104.5C 154.147,91.2441 135.481,85.7441 114.5,88C 105.838,89.3846 97.8378,92.2179 90.5,96.5C 85.7168,98.0388 81.0501,99.8721 76.5,102C 71.8645,102.939 67.5311,102.439 63.5,100.5C 68.3633,100.819 73.03,100.486 77.5,99.5C 84.0191,96.7389 90.3524,93.7389 96.5,90.5C 112.395,83.9403 128.728,82.7736 145.5,87C 153.639,89.5754 161.639,92.4087 169.5,95.5 Z"/></g>
<g><path style="opacity:1" fill="#f3dbe5" d="M 129.5,82.5 C 135.804,83.4129 142.137,84.0796 148.5,84.5C 154.061,86.8685 159.728,89.3685 165.5,92C 167.093,92.9487 168.426,94.1154 169.5,95.5C 161.639,92.4087 153.639,89.5754 145.5,87C 128.728,82.7736 112.395,83.9403 96.5,90.5C 94.4086,90.3184 92.4086,90.6518 90.5,91.5C 89.6002,90.643 89.9336,89.9763 91.5,89.5C 92.4916,89.6716 93.1583,89.3382 93.5,88.5C 99.8749,86.9896 106.208,85.323 112.5,83.5C 118.134,82.6452 123.801,82.3119 129.5,82.5 Z"/></g>
<g><path style="opacity:0.004" fill="#fefffe" d="M 1.5,95.5 C 0.426544,94.7494 0.259877,93.7494 1,92.5C 1.48278,93.448 1.64945,94.448 1.5,95.5 Z"/></g>
<g><path style="opacity:1" fill="#efa9c7" d="M 65.5,134.5 C 59.8736,139.188 60.2069,143.355 66.5,147C 70.8333,147.667 75.1667,147.667 79.5,147C 83.9222,145.756 86.2555,142.923 86.5,138.5C 88.1757,140.834 90.509,141.834 93.5,141.5C 92.4019,142.397 92.4019,143.23 93.5,144C 95.3553,144.422 97.1886,144.922 99,145.5C 100.882,144.907 101.882,143.573 102,141.5C 103.799,141.721 105.632,142.054 107.5,142.5C 107.833,140.5 108.167,138.5 108.5,136.5C 109.308,138.423 109.808,140.423 110,142.5C 110.417,143.756 111.25,144.423 112.5,144.5C 112.092,147.599 113.259,149.933 116,151.5C 116.483,152.448 116.649,153.448 116.5,154.5C 115.153,153.829 113.986,153.829 113,154.5C 112.692,153.692 112.192,153.025 111.5,152.5C 110.304,152.846 110.304,153.346 111.5,154C 109.888,154.72 108.388,154.554 107,153.5C 104.688,153.955 102.688,154.955 101,156.5C 100.612,155.572 99.9454,154.905 99,154.5C 97.469,155.217 96.1357,156.217 95,157.5C 90.6469,155.077 86.1469,154.577 81.5,156C 82.6039,157.131 82.2705,157.965 80.5,158.5C 79.5539,158.013 78.5539,157.68 77.5,157.5C 76.5236,158.195 75.5236,158.862 74.5,159.5C 66.232,154.296 60.8987,146.963 58.5,137.5C 58.0805,135.906 57.4138,134.406 56.5,133C 58.9155,131.103 58.9155,129.103 56.5,127C 58.1337,124.417 58.3003,121.917 57,119.5C 56.6667,120.167 56.3333,120.833 56,121.5C 54.5492,116.668 51.5492,115.001 47,116.5C 46.2888,114.633 46.7888,113.133 48.5,112C 47.7476,111.329 47.4142,110.496 47.5,109.5C 48.3029,108.577 48.4696,107.577 48,106.5C 44.2325,109.964 40.0658,112.797 35.5,115C 30.5,115.667 25.5,115.667 20.5,115C 16.0808,112.758 13.4141,109.258 12.5,104.5C 13.1174,104.611 13.6174,104.944 14,105.5C 14.3333,103.833 14.6667,102.167 15,100.5C 15.3333,100.833 15.6667,101.167 16,101.5C 23.608,98.809 31.108,95.809 38.5,92.5C 41.5989,93.5197 44.5989,94.6864 47.5,96C 46.5494,96.7175 46.3828,97.5509 47,98.5C 49.9766,100.153 52.4766,101.819 54.5,103.5C 55.7853,106.021 56.4519,108.687 56.5,111.5C 58.4815,110.652 60.4815,110.152 62.5,110C 58.7518,114.852 58.5851,119.352 62,123.5C 63.353,122.315 64.5197,120.981 65.5,119.5C 66.0642,122.811 67.7308,125.311 70.5,127C 70.1667,127.333 69.8333,127.667 69.5,128C 71.7032,128.624 73.7032,128.124 75.5,126.5C 76.3081,126.808 76.9747,127.308 77.5,128C 72.8367,130.18 68.8367,132.347 65.5,134.5 Z"/></g>
<g><path style="opacity:1" fill="#1e1318" d="M 170.5,95.5 C 171.29,94.5987 172.29,93.9321 173.5,93.5C 175.5,94.8333 177.167,96.5 178.5,98.5C 177.594,106.065 173.261,109.731 165.5,109.5C 166.114,113.135 166.448,116.802 166.5,120.5C 167.602,124.747 167.768,129.08 167,133.5C 166.823,129.644 166.323,125.977 165.5,122.5C 165.282,117.962 164.282,113.629 162.5,109.5C 162.091,106.189 160.924,103.189 159,100.5C 158.692,101.308 158.192,101.975 157.5,102.5C 152.838,98.9793 147.838,96.9793 142.5,96.5C 143.028,98.3361 143.694,100.003 144.5,101.5C 147.64,112.047 148.14,122.714 146,133.5C 144.475,136.087 142.308,136.92 139.5,136C 137.132,133.093 135.465,129.926 134.5,126.5C 134.082,120.331 133.415,114.331 132.5,108.5C 132.5,105.167 132.5,101.833 132.5,98.5C 132.5,96.8333 132.5,95.1667 132.5,93.5C 121.789,93.1884 111.122,93.6884 100.5,95C 97.9544,96.5213 97.9544,98.0213 100.5,99.5C 100.993,101.806 101.326,104.139 101.5,106.5C 100.842,105.602 100.176,104.602 99.5,103.5C 98.0052,102.295 96.6719,102.295 95.5,103.5C 94.5,103.167 93.8333,102.5 93.5,101.5C 95.0746,99.8863 95.7413,97.8863 95.5,95.5C 93.7839,95.6287 92.1172,95.962 90.5,96.5C 97.8378,92.2179 105.838,89.3846 114.5,88C 135.481,85.7441 154.147,91.2441 170.5,104.5C 175.744,101.718 175.744,98.7183 170.5,95.5 Z"/></g>
<g><path style="opacity:1" fill="#a55383" d="M 132.5,98.5 C 131.167,98.5 129.833,98.5 128.5,98.5C 119.255,97.1419 109.922,97.4752 100.5,99.5C 97.9544,98.0213 97.9544,96.5213 100.5,95C 111.122,93.6884 121.789,93.1884 132.5,93.5C 132.5,95.1667 132.5,96.8333 132.5,98.5 Z"/></g>
<g><path style="opacity:0.004" fill="#ffaeff" d="M -0.5,96.5 C 0.166667,98.5 0.833333,100.5 1.5,102.5C 1.5,103.833 1.5,105.167 1.5,106.5C 0.833333,108.167 0.166667,109.833 -0.5,111.5C -0.5,109.5 -0.5,107.5 -0.5,105.5C 0.833333,104.833 0.833333,104.167 -0.5,103.5C -0.5,101.167 -0.5,98.8333 -0.5,96.5 Z"/></g>
<g><path style="opacity:1" fill="#ab5a8c" d="M 162.5,109.5 C 156.934,105.797 151.1,102.464 145,99.5C 144.536,100.094 144.369,100.761 144.5,101.5C 143.694,100.003 143.028,98.3361 142.5,96.5C 147.838,96.9793 152.838,98.9793 157.5,102.5C 158.192,101.975 158.692,101.308 159,100.5C 160.924,103.189 162.091,106.189 162.5,109.5 Z"/></g>
<g><path style="opacity:1" fill="#eeb2cc" d="M 29.5,80.5 C 33.1817,80.3347 36.8484,80.5014 40.5,81C 48.1805,82.8926 52.1805,87.7259 52.5,95.5C 52.393,97.9032 53.393,99.7365 55.5,101C 64.9165,106.312 74.5831,106.812 84.5,102.5C 85.1914,114.036 87.0247,125.37 90,136.5C 97.0239,142.807 101.357,141.141 103,131.5C 103.717,123.09 103.217,114.756 101.5,106.5C 101.326,104.139 100.993,101.806 100.5,99.5C 109.922,97.4752 119.255,97.1419 128.5,98.5C 123.156,98.334 117.823,98.5006 112.5,99C 113.833,99.3333 115.167,99.6667 116.5,100C 114.699,100.317 114.366,100.984 115.5,102C 113.76,103.827 112.093,103.66 110.5,101.5C 107.177,102.938 106.844,104.771 109.5,107C 108.687,108.314 107.687,109.481 106.5,110.5C 108.695,111.769 110.861,111.769 113,110.5C 111.886,112.669 112.386,114.502 114.5,116C 107.502,115.19 106.835,117.024 112.5,121.5C 111.675,122.386 110.675,122.719 109.5,122.5C 108.196,121.013 107.03,119.346 106,117.5C 105.247,122.375 105.414,127.208 106.5,132C 104.505,138.51 100.171,141.676 93.5,141.5C 90.509,141.834 88.1757,140.834 86.5,138.5C 85.3272,136.496 83.6605,134.996 81.5,134C 76.1149,133.267 70.7815,133.433 65.5,134.5C 68.8367,132.347 72.8367,130.18 77.5,128C 76.9747,127.308 76.3081,126.808 75.5,126.5C 73.7032,128.124 71.7032,128.624 69.5,128C 69.8333,127.667 70.1667,127.333 70.5,127C 67.7308,125.311 66.0642,122.811 65.5,119.5C 64.5197,120.981 63.353,122.315 62,123.5C 58.5851,119.352 58.7518,114.852 62.5,110C 60.4815,110.152 58.4815,110.652 56.5,111.5C 56.4519,108.687 55.7853,106.021 54.5,103.5C 52.4766,101.819 49.9766,100.153 47,98.5C 46.3828,97.5509 46.5494,96.7175 47.5,96C 44.5989,94.6864 41.5989,93.5197 38.5,92.5C 31.108,95.809 23.608,98.809 16,101.5C 15.6667,101.167 15.3333,100.833 15,100.5C 14.6667,102.167 14.3333,103.833 14,105.5C 13.6174,104.944 13.1174,104.611 12.5,104.5C 12.5,102.167 12.5,99.8333 12.5,97.5C 15.1667,88.8333 20.8333,83.1667 29.5,80.5 Z"/></g>
<g><path style="opacity:1" fill="#f9f2f4" d="M 25.5,85.5 C 31.5548,84.9421 32.8881,87.1088 29.5,92C 23.3389,92.878 22.0055,90.7113 25.5,85.5 Z"/></g>
<g><path style="opacity:1" fill="#f2b9cf" d="M 128.5,98.5 C 129.833,98.5 131.167,98.5 132.5,98.5C 132.5,101.833 132.5,105.167 132.5,108.5C 132.665,111.518 132.498,114.518 132,117.5C 131.911,113.972 131.244,110.638 130,107.5C 129.272,110.23 129.438,112.897 130.5,115.5C 129.147,116.524 128.48,117.857 128.5,119.5C 124.555,117.757 121.222,118.591 118.5,122C 118.957,122.414 119.291,122.914 119.5,123.5C 116.634,124.208 113.8,124.875 111,125.5C 109.961,124.756 109.461,123.756 109.5,122.5C 110.675,122.719 111.675,122.386 112.5,121.5C 106.835,117.024 107.502,115.19 114.5,116C 112.386,114.502 111.886,112.669 113,110.5C 110.861,111.769 108.695,111.769 106.5,110.5C 107.687,109.481 108.687,108.314 109.5,107C 106.844,104.771 107.177,102.938 110.5,101.5C 112.093,103.66 113.76,103.827 115.5,102C 114.366,100.984 114.699,100.317 116.5,100C 115.167,99.6667 113.833,99.3333 112.5,99C 117.823,98.5006 123.156,98.334 128.5,98.5 Z"/></g>
<g><path style="opacity:1" fill="#e3e2e5" d="M 93.5,101.5 C 93.8333,102.5 94.5,103.167 95.5,103.5C 97.1731,107.594 96.8398,111.427 94.5,115C 91.7825,116.033 89.9492,115.2 89,112.5C 88.0715,108.756 88.5715,105.256 90.5,102C 91.448,101.517 92.448,101.351 93.5,101.5 Z"/></g>
<g><path style="opacity:1" fill="#e0dee1" d="M 136.5,100.5 C 138.752,100.916 140.252,102.249 141,104.5C 141.667,107.167 141.667,109.833 141,112.5C 137.554,113.761 135.554,112.428 135,108.5C 134.109,105.502 134.609,102.836 136.5,100.5 Z"/></g>
<g><path style="opacity:1" fill="#ecb0c9" d="M 162.5,109.5 C 164.282,113.629 165.282,117.962 165.5,122.5C 165.5,123.833 165.5,125.167 165.5,126.5C 164.678,124.611 163.845,122.611 163,120.5C 159.839,122.416 160.006,124.25 163.5,126C 163.272,126.399 162.938,126.565 162.5,126.5C 158.692,126.163 155.026,126.663 151.5,128C 149.887,130.228 149.22,132.728 149.5,135.5C 148.229,137.109 147.229,138.942 146.5,141C 146.833,141.333 147.167,141.667 147.5,142C 144.173,142.61 140.839,143.11 137.5,143.5C 137.62,141.801 137.954,140.135 138.5,138.5C 137.115,136.464 135.782,134.464 134.5,132.5C 134.5,130.5 134.5,128.5 134.5,126.5C 135.465,129.926 137.132,133.093 139.5,136C 142.308,136.92 144.475,136.087 146,133.5C 148.14,122.714 147.64,112.047 144.5,101.5C 144.369,100.761 144.536,100.094 145,99.5C 151.1,102.464 156.934,105.797 162.5,109.5 Z"/></g>
<g><path style="opacity:1" fill="#22151a" d="M 185.5,70.5 C 183.715,70.9256 182.715,72.0922 182.5,74C 184.131,78.1008 185.631,82.2674 187,86.5C 188.968,99.0947 185.468,109.761 176.5,118.5C 174.537,119.96 172.704,121.627 171,123.5C 171.591,135.805 168.757,147.138 162.5,157.5C 162.19,156.262 161.69,156.262 161,157.5C 159.961,156.756 159.461,155.756 159.5,154.5C 163.705,145.676 165.705,136.343 165.5,126.5C 165.5,125.167 165.5,123.833 165.5,122.5C 166.323,125.977 166.823,129.644 167,133.5C 167.768,129.08 167.602,124.747 166.5,120.5C 174.401,115.928 179.735,109.261 182.5,100.5C 184.885,91.8212 183.051,84.1545 177,77.5C 176.148,78.5707 175.315,79.5707 174.5,80.5C 174.5,79.8333 174.5,79.1667 174.5,78.5C 174.975,76.2163 175.975,74.2163 177.5,72.5C 178.825,71.0474 179.658,71.3808 180,73.5C 180.833,72.5 181.667,71.5 182.5,70.5C 183.687,69.3473 184.687,69.3473 185.5,70.5 Z"/></g>
<g><path style="opacity:1" fill="#1b141a" d="M 52.5,95.5 C 52.8333,95.5 53.1667,95.5 53.5,95.5C 56.2466,98.2067 59.5799,99.8734 63.5,100.5C 67.5311,102.439 71.8645,102.939 76.5,102C 81.0501,99.8721 85.7168,98.0388 90.5,96.5C 92.1172,95.962 93.7839,95.6287 95.5,95.5C 95.7413,97.8863 95.0746,99.8863 93.5,101.5C 92.448,101.351 91.448,101.517 90.5,102C 88.5715,105.256 88.0715,108.756 89,112.5C 89.9492,115.2 91.7825,116.033 94.5,115C 96.8398,111.427 97.1731,107.594 95.5,103.5C 96.6719,102.295 98.0052,102.295 99.5,103.5C 100.176,104.602 100.842,105.602 101.5,106.5C 103.217,114.756 103.717,123.09 103,131.5C 101.357,141.141 97.0239,142.807 90,136.5C 87.0247,125.37 85.1914,114.036 84.5,102.5C 74.5831,106.812 64.9165,106.312 55.5,101C 53.393,99.7365 52.393,97.9032 52.5,95.5 Z"/></g>
<g><path style="opacity:0.993" fill="#cd5a94" d="M 178.5,98.5 C 179.315,99.4293 180.148,100.429 181,101.5C 181.383,100.944 181.883,100.611 182.5,100.5C 179.735,109.261 174.401,115.928 166.5,120.5C 166.448,116.802 166.114,113.135 165.5,109.5C 173.261,109.731 177.594,106.065 178.5,98.5 Z"/></g>
<g><path style="opacity:1" fill="#eea3c3" d="M 47.5,109.5 C 47.4142,110.496 47.7476,111.329 48.5,112C 46.7888,113.133 46.2888,114.633 47,116.5C 51.5492,115.001 54.5492,116.668 56,121.5C 56.3333,120.833 56.6667,120.167 57,119.5C 58.3003,121.917 58.1337,124.417 56.5,127C 58.9155,129.103 58.9155,131.103 56.5,133C 57.4138,134.406 58.0805,135.906 58.5,137.5C 56.3439,145.897 52.5106,146.563 47,139.5C 44.2707,134.712 42.104,129.712 40.5,124.5C 40.8333,123.833 41.1667,123.167 41.5,122.5C 42.7271,117.718 44.7271,113.385 47.5,109.5 Z"/></g>
<g><path style="opacity:1" fill="#d05894" d="M 12.5,97.5 C 12.5,99.8333 12.5,102.167 12.5,104.5C 13.4141,109.258 16.0808,112.758 20.5,115C 25.5,115.667 30.5,115.667 35.5,115C 40.0658,112.797 44.2325,109.964 48,106.5C 48.4696,107.577 48.3029,108.577 47.5,109.5C 44.7271,113.385 42.7271,117.718 41.5,122.5C 26.6975,129.096 16.6975,124.763 11.5,109.5C 11.1832,105.298 11.5166,101.298 12.5,97.5 Z"/></g>
<g><path style="opacity:1" fill="#edafc9" d="M 132.5,108.5 C 133.415,114.331 134.082,120.331 134.5,126.5C 134.5,128.5 134.5,130.5 134.5,132.5C 132.61,132.703 131.11,132.037 130,130.5C 129.308,131.025 128.808,131.692 128.5,132.5C 129.752,134.001 130.752,135.668 131.5,137.5C 130.284,141.6 128.784,145.6 127,149.5C 123.938,152.115 120.438,153.781 116.5,154.5C 116.649,153.448 116.483,152.448 116,151.5C 113.259,149.933 112.092,147.599 112.5,144.5C 111.25,144.423 110.417,143.756 110,142.5C 109.808,140.423 109.308,138.423 108.5,136.5C 108.167,138.5 107.833,140.5 107.5,142.5C 105.632,142.054 103.799,141.721 102,141.5C 101.882,143.573 100.882,144.907 99,145.5C 97.1886,144.922 95.3553,144.422 93.5,144C 92.4019,143.23 92.4019,142.397 93.5,141.5C 100.171,141.676 104.505,138.51 106.5,132C 105.414,127.208 105.247,122.375 106,117.5C 107.03,119.346 108.196,121.013 109.5,122.5C 109.461,123.756 109.961,124.756 111,125.5C 113.8,124.875 116.634,124.208 119.5,123.5C 119.291,122.914 118.957,122.414 118.5,122C 121.222,118.591 124.555,117.757 128.5,119.5C 128.48,117.857 129.147,116.524 130.5,115.5C 129.438,112.897 129.272,110.23 130,107.5C 131.244,110.638 131.911,113.972 132,117.5C 132.498,114.518 132.665,111.518 132.5,108.5 Z"/></g>
<g><path style="opacity:1" fill="#224f79" d="M 100.5,133.5 C 100.806,130.615 100.473,127.948 99.5,125.5C 99.281,124.325 99.6143,123.325 100.5,122.5C 101.808,126.315 101.808,129.981 100.5,133.5 Z"/></g>
<g><path style="opacity:1" fill="#22141a" d="M 11.5,109.5 C 16.6975,124.763 26.6975,129.096 41.5,122.5C 41.1667,123.167 40.8333,123.833 40.5,124.5C 38.1104,124.685 37.1104,126.018 37.5,128.5C 38.3797,131.802 39.0463,135.135 39.5,138.5C 38.7321,137.737 38.2321,136.737 38,135.5C 37.3551,136.646 36.5217,137.646 35.5,138.5C 36.376,139.251 37.376,139.751 38.5,140C 36.4497,140.416 35.1164,141.583 34.5,143.5C 33.1154,142.426 31.9487,141.093 31,139.5C 30.4436,141.885 30.6103,144.218 31.5,146.5C 31.2865,148.144 31.6198,149.644 32.5,151C 31.552,151.483 30.552,151.649 29.5,151.5C 29.6347,149.028 28.968,147.694 27.5,147.5C 25.2229,141.851 24.0562,135.851 24,129.5C 21.7787,128.594 19.6121,127.594 17.5,126.5C 12.9,122.893 9.89999,118.226 8.5,112.5C 9.28997,111.391 9.78997,110.058 10,108.5C 10.3333,109.5 10.6667,110.5 11,111.5C 11.4643,110.906 11.631,110.239 11.5,109.5 Z"/></g>
<g><path style="opacity:1" fill="#e85b8d" d="M 162.5,126.5 C 163.636,128.046 164.302,129.879 164.5,132C 164.202,134.848 163.869,137.681 163.5,140.5C 157.786,141.549 153.12,139.883 149.5,135.5C 149.22,132.728 149.887,130.228 151.5,128C 155.026,126.663 158.692,126.163 162.5,126.5 Z"/></g>
<g><path style="opacity:1" fill="#e6a4b8" d="M 191.5,11.5 C 191.985,16.9115 193.152,22.2449 195,27.5C 195.766,22.6399 198.1,18.6399 202,15.5C 202.333,15.8333 202.667,16.1667 203,16.5C 205.939,15.8719 208.772,15.2052 211.5,14.5C 212.725,16.2653 214.558,18.2653 217,20.5C 218.107,19.2881 218.607,19.6214 218.5,21.5C 217.167,21.8333 217.167,22.1667 218.5,22.5C 219.126,23.5289 219.959,24.5289 221,25.5C 221.49,26.7932 221.657,28.1266 221.5,29.5C 220.261,33.6821 220.261,38.0154 221.5,42.5C 221.263,45.0635 220.763,45.0635 220,42.5C 219.517,43.448 219.351,44.448 219.5,45.5C 218.596,46.209 218.263,47.209 218.5,48.5C 217.662,48.8417 217.328,49.5084 217.5,50.5C 216.662,50.8417 216.328,51.5084 216.5,52.5C 215.167,52.8333 215.167,53.1667 216.5,53.5C 214.661,56.5604 211.994,59.5604 208.5,62.5C 208.167,61.1667 207.833,61.1667 207.5,62.5C 206.833,63.1667 206.167,63.8333 205.5,64.5C 205.167,63.1667 204.833,63.1667 204.5,64.5C 203.616,66.2971 201.616,67.2971 198.5,67.5C 197.833,66.1667 197.167,66.1667 196.5,67.5C 194.973,67.427 193.973,68.0937 193.5,69.5C 192.833,69.5 192.5,69.8333 192.5,70.5C 192.5,70.8333 192.5,71.1667 192.5,71.5C 191.167,71.8333 191.167,72.1667 192.5,72.5C 191.833,73.1667 191.167,73.8333 190.5,74.5C 189.167,74.8333 189.167,75.1667 190.5,75.5C 191.441,77.0495 192.107,78.7162 192.5,80.5C 191.167,81.1667 191.167,81.8333 192.5,82.5C 192.457,86.8926 192.957,87.2259 194,83.5C 194.49,84.7932 194.657,86.1266 194.5,87.5C 193.527,89.9479 193.194,92.6146 193.5,95.5C 193.5,96.1667 193.5,96.8333 193.5,97.5C 193.75,100.214 193.917,102.881 194,105.5C 190.718,113.733 185.718,120.733 179,126.5C 178.888,139.593 175.054,151.593 167.5,162.5C 165.312,161.377 162.979,161.377 160.5,162.5C 161.441,160.95 162.107,159.284 162.5,157.5C 168.757,147.138 171.591,135.805 171,123.5C 172.704,121.627 174.537,119.96 176.5,118.5C 176.522,120.8 177.522,121.967 179.5,122C 190.033,112.058 193.866,99.8918 191,85.5C 189.555,81.8496 188.555,78.183 188,74.5C 189.999,72.5065 191.499,70.1732 192.5,67.5C 198.709,65.7108 204.376,62.8775 209.5,59C 217.487,49.6429 220.32,38.8096 218,26.5C 217.036,22.5315 214.869,19.3649 211.5,17C 202.226,15.7702 197.893,19.9368 198.5,29.5C 196.858,30.803 195.191,32.1363 193.5,33.5C 193.423,32.2502 192.756,31.4169 191.5,31C 191.957,30.586 192.291,30.086 192.5,29.5C 191.832,25.4701 191.166,21.4701 190.5,17.5C 191.461,15.7354 191.795,13.7354 191.5,11.5 Z"/></g>
<g><path style="opacity:1" fill="#338cd2" d="M 144.5,118.5 C 145.647,122.646 145.814,126.98 145,131.5C 143.402,134.925 141.402,135.258 139,132.5C 137.85,130.246 137.516,127.913 138,125.5C 139.598,128.925 141.598,129.258 144,126.5C 144.497,123.854 144.664,121.187 144.5,118.5 Z"/></g>
<g><path style="opacity:1" fill="#2993dd" d="M 99.5,125.5 C 100.473,127.948 100.806,130.615 100.5,133.5C 98.9987,138.579 96.1654,139.579 92,136.5C 90.5783,133.97 90.245,131.303 91,128.5C 95.7225,134.013 98.5559,133.013 99.5,125.5 Z"/></g>
<g><path style="opacity:1" fill="#e74681" d="M 86.5,138.5 C 86.2555,142.923 83.9222,145.756 79.5,147C 75.1667,147.667 70.8333,147.667 66.5,147C 60.2069,143.355 59.8736,139.188 65.5,134.5C 70.7815,133.433 76.1149,133.267 81.5,134C 83.6605,134.996 85.3272,136.496 86.5,138.5 Z"/></g>
<g><path style="opacity:1" fill="#2b141a" d="M 115.5,147.5 C 114.272,146.694 113.272,145.694 112.5,144.5C 112.414,142.323 111.747,140.323 110.5,138.5C 112.123,137.524 113.457,138.024 114.5,140C 119.399,141.125 123.899,140.291 128,137.5C 129.262,144.083 126.929,148.75 121,151.5C 118.495,151.006 116.661,149.672 115.5,147.5 Z"/></g>
<g><path style="opacity:1" fill="#de4982" d="M 115.5,147.5 C 114.455,142.069 116.788,140.236 122.5,142C 126.037,143.826 126.371,146.16 123.5,149C 120.562,149.712 117.896,149.212 115.5,147.5 Z"/></g>
<g><path style="opacity:1" fill="#eeaac6" d="M 165.5,126.5 C 165.705,136.343 163.705,145.676 159.5,154.5C 158.833,154.5 158.5,154.833 158.5,155.5C 157.732,154.737 157.232,153.737 157,152.5C 155.542,153.747 154.042,153.747 152.5,152.5C 151.5,153.167 150.5,153.833 149.5,154.5C 146.243,152.894 144.076,153.894 143,157.5C 142.692,156.692 142.192,156.025 141.5,155.5C 140.264,156.246 138.93,156.579 137.5,156.5C 137.5,155.5 137.5,154.5 137.5,153.5C 133.618,154.637 129.784,154.637 126,153.5C 122.815,155.252 119.648,155.585 116.5,154.5C 120.438,153.781 123.938,152.115 127,149.5C 128.784,145.6 130.284,141.6 131.5,137.5C 130.752,135.668 129.752,134.001 128.5,132.5C 128.808,131.692 129.308,131.025 130,130.5C 131.11,132.037 132.61,132.703 134.5,132.5C 135.782,134.464 137.115,136.464 138.5,138.5C 137.954,140.135 137.62,141.801 137.5,143.5C 140.839,143.11 144.173,142.61 147.5,142C 147.167,141.667 146.833,141.333 146.5,141C 147.229,138.942 148.229,137.109 149.5,135.5C 153.12,139.883 157.786,141.549 163.5,140.5C 163.869,137.681 164.202,134.848 164.5,132C 164.302,129.879 163.636,128.046 162.5,126.5C 162.938,126.565 163.272,126.399 163.5,126C 160.006,124.25 159.839,122.416 163,120.5C 163.845,122.611 164.678,124.611 165.5,126.5 Z"/></g>
<g><path style="opacity:1" fill="#eda2c2" d="M 116.5,154.5 C 119.648,155.585 122.815,155.252 126,153.5C 129.784,154.637 133.618,154.637 137.5,153.5C 137.5,154.5 137.5,155.5 137.5,156.5C 138.93,156.579 140.264,156.246 141.5,155.5C 142.192,156.025 142.692,156.692 143,157.5C 144.076,153.894 146.243,152.894 149.5,154.5C 150.5,153.833 151.5,153.167 152.5,152.5C 154.042,153.747 155.542,153.747 157,152.5C 157.232,153.737 157.732,154.737 158.5,155.5C 157.525,157.795 156.192,159.795 154.5,161.5C 153.577,160.697 152.577,160.53 151.5,161C 147.258,165.077 142.591,168.577 137.5,171.5C 136.377,170.456 135.044,169.79 133.5,169.5C 120.922,173.088 108.256,173.421 95.5,170.5C 88.0898,167.628 81.0898,163.961 74.5,159.5C 75.5236,158.862 76.5236,158.195 77.5,157.5C 78.5539,157.68 79.5539,158.013 80.5,158.5C 82.2705,157.965 82.6039,157.131 81.5,156C 86.1469,154.577 90.6469,155.077 95,157.5C 96.1357,156.217 97.469,155.217 99,154.5C 99.9454,154.905 100.612,155.572 101,156.5C 102.688,154.955 104.688,153.955 107,153.5C 108.388,154.554 109.888,154.72 111.5,154C 110.304,153.346 110.304,152.846 111.5,152.5C 112.192,153.025 112.692,153.692 113,154.5C 113.986,153.829 115.153,153.829 116.5,154.5 Z"/></g>
<g><path style="opacity:1" fill="#201319" d="M 39.5,138.5 C 43.0857,149.09 49.0857,158.09 57.5,165.5C 72.1797,177.727 89.1797,183.393 108.5,182.5C 109.239,182.369 109.906,182.536 110.5,183C 82.5583,192.354 59.7249,185.187 42,161.5C 38.6423,155.794 36.1423,149.794 34.5,143.5C 35.1164,141.583 36.4497,140.416 38.5,140C 37.376,139.751 36.376,139.251 35.5,138.5C 36.5217,137.646 37.3551,136.646 38,135.5C 38.2321,136.737 38.7321,137.737 39.5,138.5 Z"/></g>
<g><path style="opacity:1" fill="#ce5892" d="M 40.5,124.5 C 42.104,129.712 44.2707,134.712 47,139.5C 52.5106,146.563 56.3439,145.897 58.5,137.5C 60.8987,146.963 66.232,154.296 74.5,159.5C 81.0898,163.961 88.0898,167.628 95.5,170.5C 94.7354,170.923 93.9021,171.257 93,171.5C 87.2801,170.239 81.6134,168.906 76,167.5C 75.586,167.957 75.086,168.291 74.5,168.5C 73.2997,167.469 71.9663,166.635 70.5,166C 71.624,165.751 72.624,165.251 73.5,164.5C 68.3683,163.238 63.7016,161.072 59.5,158C 61.6857,157.396 61.8524,156.23 60,154.5C 57.2809,155.444 54.4475,155.777 51.5,155.5C 51.5,156.5 51.5,157.5 51.5,158.5C 54.1865,159.664 56.5199,161.497 58.5,164C 57.944,164.383 57.6107,164.883 57.5,165.5C 49.0857,158.09 43.0857,149.09 39.5,138.5C 39.0463,135.135 38.3797,131.802 37.5,128.5C 37.1104,126.018 38.1104,124.685 40.5,124.5 Z"/></g>
<g><path style="opacity:1" fill="#e6a2b8" d="M 12.5,77.5 C 12.9382,77.4346 13.2716,77.6012 13.5,78C -0.188718,93.7843 -1.02205,110.284 11,127.5C 13.8975,130.36 16.0642,130.027 17.5,126.5C 19.6121,127.594 21.7787,128.594 24,129.5C 24.0562,135.851 25.2229,141.851 27.5,147.5C 30.5278,158.549 36.3612,167.883 45,175.5C 45.8527,179.469 46.5193,183.469 47,187.5C 47.9959,189.66 49.4959,191.327 51.5,192.5C 51.5299,193.497 51.0299,194.164 50,194.5C 48.3122,192.481 46.3122,190.814 44,189.5C 43.9252,187.065 43.0919,186.398 41.5,187.5C 39.1867,188.392 38.8534,187.558 40.5,185C 36.4313,177.571 31.2646,170.071 25,162.5C 23.5515,158.438 21.7182,154.605 19.5,151C 20.727,149.413 20.3937,148.079 18.5,147C 19.0219,146.439 19.3552,145.772 19.5,145C 19.1081,143.989 18.4415,143.489 17.5,143.5C 18.5202,141.568 18.6869,139.568 18,137.5C 17.6667,138.5 17.3333,139.5 17,140.5C 16.2797,138.888 16.4464,137.388 17.5,136C 5.2966,127.273 -0.0367353,117.44 1.5,106.5C 1.5,105.167 1.5,103.833 1.5,102.5C 1.5,100.167 1.5,97.8333 1.5,95.5C 2.43448,94.4324 2.76781,93.099 2.5,91.5C 4.87918,88.7783 6.04585,85.7783 6,82.5C 6.9138,83.6537 7.74714,83.487 8.5,82C 8.16667,81.6667 7.83333,81.3333 7.5,81C 9.32306,80.0027 10.9897,78.8361 12.5,77.5 Z"/></g>
<g><path style="opacity:1" fill="#26131a" d="M 31.5,146.5 C 40.635,169.796 57.3017,184.963 81.5,192C 91.9352,192.907 102.269,192.24 112.5,190C 116.061,188.768 119.394,187.268 122.5,185.5C 135.736,180.931 146.403,172.931 154.5,161.5C 156.192,159.795 157.525,157.795 158.5,155.5C 158.5,154.833 158.833,154.5 159.5,154.5C 159.461,155.756 159.961,156.756 161,157.5C 161.69,156.262 162.19,156.262 162.5,157.5C 162.107,159.284 161.441,160.95 160.5,162.5C 157.334,166.507 154.334,170.673 151.5,175C 149.833,175.333 148.167,175.667 146.5,176C 137.305,183.929 126.971,189.762 115.5,193.5C 107.833,195.707 100,196.707 92,196.5C 78.614,194.368 65.114,193.035 51.5,192.5C 49.4959,191.327 47.9959,189.66 47,187.5C 46.5193,183.469 45.8527,179.469 45,175.5C 36.3612,167.883 30.5278,158.549 27.5,147.5C 28.968,147.694 29.6347,149.028 29.5,151.5C 30.552,151.649 31.552,151.483 32.5,151C 31.6198,149.644 31.2865,148.144 31.5,146.5 Z"/></g>
<g><path style="opacity:1" fill="#d45995" d="M 95.5,170.5 C 108.256,173.421 120.922,173.088 133.5,169.5C 135.044,169.79 136.377,170.456 137.5,171.5C 142.591,168.577 147.258,165.077 151.5,161C 152.577,160.53 153.577,160.697 154.5,161.5C 146.403,172.931 135.736,180.931 122.5,185.5C 120.801,185.62 119.135,185.954 117.5,186.5C 114.953,185.066 112.619,183.4 110.5,181.5C 109.584,181.543 108.917,181.876 108.5,182.5C 89.1797,183.393 72.1797,177.727 57.5,165.5C 57.6107,164.883 57.944,164.383 58.5,164C 56.5199,161.497 54.1865,159.664 51.5,158.5C 51.5,157.5 51.5,156.5 51.5,155.5C 54.4475,155.777 57.2809,155.444 60,154.5C 61.8524,156.23 61.6857,157.396 59.5,158C 63.7016,161.072 68.3683,163.238 73.5,164.5C 72.624,165.251 71.624,165.751 70.5,166C 71.9663,166.635 73.2997,167.469 74.5,168.5C 75.086,168.291 75.586,167.957 76,167.5C 81.6134,168.906 87.2801,170.239 93,171.5C 93.9021,171.257 94.7354,170.923 95.5,170.5 Z"/></g>
<g><path style="opacity:0.912" fill="#e69bb4" d="M 167.5,162.5 C 163.662,169.516 159.328,176.183 154.5,182.5C 152.938,182.733 151.605,183.4 150.5,184.5C 143.904,186.797 137.904,190.131 132.5,194.5C 130.25,195.13 128.25,196.13 126.5,197.5C 124.958,198.301 123.292,198.634 121.5,198.5C 117.743,198.714 117.076,197.714 119.5,195.5C 118.68,193.889 117.346,193.222 115.5,193.5C 126.971,189.762 137.305,183.929 146.5,176C 148.167,175.667 149.833,175.333 151.5,175C 154.334,170.673 157.334,166.507 160.5,162.5C 162.979,161.377 165.312,161.377 167.5,162.5 Z"/></g>
<g><path style="opacity:0.004" fill="#fefffe" d="M 154.5,182.5 C 153.55,186.413 151.217,189.08 147.5,190.5C 148.5,188.5 149.5,186.5 150.5,184.5C 151.605,183.4 152.938,182.733 154.5,182.5 Z"/></g>
<g><path style="opacity:0.775" fill="#932c5b" d="M 50.5,177.5 C 55.4709,180.99 60.4709,184.49 65.5,188C 61.1795,189.418 56.8461,189.585 52.5,188.5C 50.6751,185.123 50.0084,181.457 50.5,177.5 Z"/></g>
<g><path style="opacity:0.008" fill="#fe8a8f" d="M 150.5,184.5 C 149.5,186.5 148.5,188.5 147.5,190.5C 144.757,191.388 142.09,192.555 139.5,194C 137.19,194.497 134.857,194.663 132.5,194.5C 137.904,190.131 143.904,186.797 150.5,184.5 Z"/></g>
<g><path style="opacity:1" fill="#c85d97" d="M 34.5,143.5 C 36.1423,149.794 38.6423,155.794 42,161.5C 59.7249,185.187 82.5583,192.354 110.5,183C 109.906,182.536 109.239,182.369 108.5,182.5C 108.917,181.876 109.584,181.543 110.5,181.5C 112.619,183.4 114.953,185.066 117.5,186.5C 119.135,185.954 120.801,185.62 122.5,185.5C 119.394,187.268 116.061,188.768 112.5,190C 102.269,192.24 91.9352,192.907 81.5,192C 57.3017,184.963 40.635,169.796 31.5,146.5C 30.6103,144.218 30.4436,141.885 31,139.5C 31.9487,141.093 33.1154,142.426 34.5,143.5 Z"/></g>
<g><path style="opacity:0.004" fill="#fefffe" d="M 147.5,190.5 C 145.747,192.223 143.747,193.723 141.5,195C 136.675,196.895 131.675,197.728 126.5,197.5C 128.25,196.13 130.25,195.13 132.5,194.5C 134.857,194.663 137.19,194.497 139.5,194C 142.09,192.555 144.757,191.388 147.5,190.5 Z"/></g>
<g><path style="opacity:0.985" fill="#eca1ba" d="M 51.5,192.5 C 65.114,193.035 78.614,194.368 92,196.5C 100,196.707 107.833,195.707 115.5,193.5C 117.346,193.222 118.68,193.889 119.5,195.5C 117.076,197.714 117.743,198.714 121.5,198.5C 115.244,201.397 108.578,203.064 101.5,203.5C 101.5,203.167 101.5,202.833 101.5,202.5C 103.989,202.702 106.323,202.202 108.5,201C 107.667,200.833 106.833,200.667 106,200.5C 98.192,201.586 90.3587,201.753 82.5,201C 79.1498,200.75 75.9831,199.917 73,198.5C 75.1049,201.451 78.2716,202.785 82.5,202.5C 82.5,202.833 82.5,203.167 82.5,203.5C 74.5077,202.168 66.5077,200.835 58.5,199.5C 56.1693,199.45 54.0026,199.783 52,200.5C 46.621,198.792 42.7876,195.292 40.5,190C 41.2524,189.329 41.5858,188.496 41.5,187.5C 43.0919,186.398 43.9252,187.065 44,189.5C 46.3122,190.814 48.3122,192.481 50,194.5C 51.0299,194.164 51.5299,193.497 51.5,192.5 Z"/></g>
<g><path style="opacity:0.111" fill="#e37fa2" d="M 101.5,202.5 C 99.5853,202.216 97.9187,202.549 96.5,203.5C 91.8075,203.46 87.1408,203.127 82.5,202.5C 78.2716,202.785 75.1049,201.451 73,198.5C 75.9831,199.917 79.1498,200.75 82.5,201C 90.3587,201.753 98.192,201.586 106,200.5C 106.833,200.667 107.667,200.833 108.5,201C 106.323,202.202 103.989,202.702 101.5,202.5 Z"/></g>
<g><path style="opacity:0.004" fill="#fefffe" d="M 82.5,203.5 C 82.5,203.167 82.5,202.833 82.5,202.5C 87.1408,203.127 91.8075,203.46 96.5,203.5C 98.1667,203.5 99.8333,203.5 101.5,203.5C 101.5,203.833 101.5,204.167 101.5,204.5C 95.5,204.5 89.5,204.5 83.5,204.5C 83.5,203.833 83.1667,203.5 82.5,203.5 Z"/></g>
</svg>
